<svg width="250" height="250" viewBox="0 0 250 250" fill="none" xmlns="http://www.w3.org/2000/svg">
<path d="M34 35H215V216H34V35Z" fill="#E6F1F3"/>
<path d="M136.23 123.535L136.719 123.779L133.545 125.977L129.883 128.662L126.709 130.859L125.244 131.836L124.756 132.324L119.385 135.01L116.943 136.23L110.107 139.16L106.445 140.869L103.76 142.09L99.1211 144.043L97.168 145.02L95.2148 145.752L91.7969 147.461L89.8438 148.193L87.1582 149.414L83.252 151.123L78.3691 153.32L74.9512 154.785L72.7539 155.762L70.3125 156.982L67.1387 158.203L64.209 159.668L60.3027 161.133H59.5703L62.5 157.959L64.6973 155.518L65.6738 154.297L66.6504 153.32L68.8477 150.879L71.0449 148.193L74.2188 144.531L76.416 141.846L79.1016 138.916L80.8105 136.963L83.7402 133.545L85.9375 131.104L87.6465 129.15L90.5762 125.732L92.2852 123.779L136.23 123.535Z" fill="#02020B"/>
<path d="M164.551 146.484L164.795 147.461L162.598 157.471L161.133 164.062L160.156 167.725L157.959 169.678H157.471L156.982 170.654L153.076 174.316L151.367 175.781L152.832 178.467L155.273 182.129L158.447 187.012L161.133 191.162L176.514 191.406L176.025 192.383L173.34 195.801H148.926L150.391 193.848L152.1 192.139L152.588 191.406L160.156 191.162L157.227 188.965L149.414 182.617L145.996 179.932L140.869 176.025L140.625 175.781H135.254L139.404 182.129L142.334 186.768L145.02 190.918V191.406H149.414L148.926 192.383L145.996 195.801H130.371L131.348 194.336L133.545 191.65L133.789 191.406L144.043 191.162L140.625 188.477L137.939 186.279L134.521 183.35L131.836 181.152L127.93 177.979L125.488 175.781V175.049L127.686 172.607L129.395 170.654L132.812 166.992L134.521 165.039L137.207 162.109L139.16 159.912L145.752 156.25L151.855 153.076L156.494 150.635L164.551 146.484Z" fill="#02020B"/>
<path d="M127.93 143.066L128.418 143.311L126.953 145.02L125.244 147.461L122.803 150.879L120.361 154.541H119.873L119.385 156.006L117.676 158.203L115.479 161.621L114.746 162.598L111.084 167.969L109.131 170.654L108.154 172.363L107.178 173.828L105.469 177.246L103.516 179.443L101.318 182.373L100.098 184.082L99.1211 185.303L95.7031 189.697L93.5059 192.627L89.5996 197.754L83.0078 206.543L82.5195 207.031L83.0078 204.102L85.4492 190.674L87.6465 179.199L88.3789 175.049L90.8203 171.631L93.2617 168.457L98.3887 161.621L100.83 158.447L103.027 155.518L116.211 148.926L121.826 146.24L127.197 143.555L127.93 143.066Z" fill="#02020B"/>
<path d="M98.3887 157.715L96.4355 160.889L95.459 162.109L92.041 166.504L89.8438 169.434L86.4258 174.072L83.4961 177.979L80.3223 182.373L76.9043 186.768L73.2422 191.65L69.8242 196.045L66.4062 200.684L62.9883 205.078L59.082 210.449H43.2129L44.1895 208.984L51.0254 200.684L53.2227 197.998L55.9082 194.58L59.3262 190.43L62.0117 187.256L64.209 184.57L69.5801 178.223L71.5332 175.781L73.7305 173.096L77.1484 168.945L78.6133 166.992L85.2051 163.818L90.8203 161.133L98.3887 157.715Z" fill="#03030C"/>
<path d="M174.812 41L176.033 41.4883L179.939 43.4414L182.625 44.9062L186.287 46.8594L189.705 48.5684L190.926 49.0566L203.621 51.2539L206.307 51.7422L210.945 55.1602L214.5 58.0898L215 59L209.236 60.5312L200.447 62.4844L190.682 64.9258L188.973 67.8555L185.799 72.9824L185.066 73.959L181.404 79.5742L180.672 80.7949L180.184 81.5273L179.207 82.9922L178.719 83.7246L177.742 83.2363L170.418 78.3535L167 75.9121L168.465 73.959L170.418 72.25L176.766 65.9023L178.719 64.1934L182.381 60.5312L184.334 58.8223L185.311 58.0898H205.086V55.6484H185.555L183.357 52.9629L180.916 49.7891L180.428 49.3008L178.475 46.6152L177.254 44.6621L176.766 44.1738L175.789 42.709L175.301 41.9766L174.812 41Z" fill="#02020C"/>
<path d="M116.699 138.672L117.188 138.916L113.525 142.334L111.816 143.799L102.783 152.832L101.318 153.809L98.877 154.785L95.2148 156.738L89.3555 159.424L83.0078 162.598L77.6367 165.039L75.1953 166.26L65.918 170.654L58.1055 174.561L52.7344 177.002L48.8281 178.955L44.6777 180.908L40.7715 182.861L41.2598 181.885L43.2129 179.688L45.4102 177.002L47.8516 174.316L50.0488 171.631L52.9785 168.213L54.6875 166.26L58.5938 164.307L65.918 161.133L72.998 157.959L79.5898 155.029L87.8906 151.367L92.7734 149.17L103.76 144.287L109.863 141.602L116.699 138.672Z" fill="#03030C"/>
<path d="M152.832 112.793L154.053 113.037L157.471 114.746L163.574 117.432L167.969 119.629V120.117L161.377 123.535L157.471 125.488L153.076 127.93L148.926 129.883L145.508 131.836L137.695 135.742L131.592 138.916L123.779 142.822L119.629 145.02L115.479 146.973L108.643 150.391L108.154 150.146L110.107 148.193L112.061 146.484L116.211 142.334L118.164 140.625L122.07 136.719L125.488 134.277L129.395 131.592L133.301 128.662L137.695 125.488L138.184 125.244L138.428 126.953L139.648 127.441L140.137 126.465L142.334 123.779L145.508 120.605L147.217 118.652L149.902 115.967L151.611 114.014L152.832 112.793Z" fill="#02020B"/>
<path d="M169 122.5L168.457 126.709L166.504 139.404L165.771 143.066L164.551 144.287L156.738 148.193L153.076 150.146L146.729 153.32L143.799 155.029L139.893 156.982L140.381 153.809L143.799 136.719L144.287 134.766L150.391 131.592L155.029 129.15L163.574 124.756L169 122.5Z" fill="#02020C"/>
<path d="M179.932 116.211H180.176L180.908 120.605L181.641 127.197L183.105 139.893V142.822L180.42 145.508L178.711 147.461L176.514 149.658L174.805 151.611L173.096 153.32L171.387 155.273L169.678 156.982L167.969 158.936L163.33 164L166.016 151.855L167.48 144.775L168.701 138.916L169.434 135.01L175.293 124.268L177.979 119.385L179.932 116.211Z" fill="#03030C"/>
<path d="M126.465 85.2051L126.953 85.4492L131.348 102.051V103.271L127.441 105.225L121.094 108.154L118.652 109.375L114.014 111.572L110.84 113.037L105.225 115.723L96.4355 119.873L95.459 120.361L95.9473 119.385L97.9004 117.432L99.6094 115.479L103.027 111.816L104.736 109.863L111.084 102.539L113.281 100.098L115.723 97.4121L117.432 95.459L120.361 92.041L123.047 89.1113L124.756 87.1582L126.465 85.2051Z" fill="#02020C"/>
<path d="M148.438 53.9551L149.658 55.1758L151.367 57.8613L161.621 73.2422L162.354 74.707L156.25 75.9277L149.902 77.3926L140.869 79.3457L130.127 81.7871L128.662 82.0312L129.395 81.2988L133.545 78.6133L136.719 76.6602L138.428 73.7305L141.113 68.1152L147.705 54.9316L148.438 53.9551Z" fill="#141120"/>
<path d="M141.357 136.23H141.602L141.357 138.672L138.184 154.541L137.695 156.738L134.766 158.203L130.127 160.645L125 163.33L121.338 165.283L113.037 169.678H112.305L115.479 165.039L118.408 160.889L121.582 156.25L127.441 147.949L130.859 143.066L132.812 140.625L136.719 138.672L141.357 136.23Z" fill="#02020C"/>
<path d="M160.156 41.748L161.377 42.2363L165.771 44.6777L171.143 47.6074L175.049 49.5605L176.758 50.293L178.467 50.7812L181.152 53.7109L183.35 56.3965L181.885 58.1055L178.955 60.791L176.27 60.0586L166.26 56.8848L159.424 54.9316L152.344 52.7344L150.146 52.002L151.611 50.293L160.156 41.748Z" fill="#151221"/>
<path d="M85.5 178.5L82.7637 193.848L81.7871 198.975L81.0547 203.125L79.834 209.473L79.5898 210.449H61.7676L63.2324 208.252L65.4297 205.322L69.3359 200.195L70.8008 198.242L78.6133 187.988L80.5664 185.303L83.252 181.885L85.5 178.5Z" fill="#03040D"/>
<path d="M92.2852 123.779H131.104V124.023L127.197 124.756L118.652 127.197L107.91 130.371L94.4824 134.277L87.1582 136.475L80.3223 138.428H79.834L80.3223 137.451L82.5195 135.01L84.7168 132.324L87.8906 128.906L90.0879 126.221L92.2852 123.779Z" fill="#02020B"/>
<path d="M157.959 168.457L158.936 168.701L157.959 169.678H157.471L156.982 170.654L153.076 174.316L151.367 175.781L152.832 178.467L155.273 182.129L158.447 187.012L161.133 191.162L176.514 191.406L176.025 192.383L173.34 195.801H148.926L150.391 193.848L152.1 192.139L152.588 191.406L160.156 191.162L157.227 188.965L149.414 182.617L145.996 179.932L140.869 176.025L140.625 175.781L135.01 175.537L135.742 175.049L141.846 173.34L151.611 170.41L154.785 169.434L157.959 168.457Z" fill="#05050F"/>
<path d="M177.303 87.1582H177.547L178.768 99.6094L179.5 110.84V112.793L177.791 115.234L176.814 116.943L175.35 119.629L173.396 123.047L172.42 125L170.223 129.15L169.979 128.662L170.955 119.873V113.281L170.467 101.807L170.223 98.1445V94.9707L171.932 93.0176L172.908 91.7969L177.059 87.6465L177.303 87.1582Z" fill="#141120"/>
<path d="M187.988 94.4824L188.965 94.9707L191.406 97.168L191.895 97.4121V97.9004L192.871 98.3887L195.801 101.318L197.754 103.027L198 103.5L197.998 105.469L196.289 112.305L194.824 117.432L193.359 123.047L192.139 121.826L191.162 120.117L188.477 115.967L187.012 113.525L184.57 109.863L183 108L183.594 105.713L187.5 95.7031L187.988 94.4824Z" fill="#02020B"/>
<path d="M143.066 102.051L144.043 102.295L146.973 105.713L149.658 108.887L151.367 111.084L149.902 112.793L148.193 114.746L145.264 117.676L143.555 119.629L139.404 123.779L138.184 119.873L136.475 113.525L134.766 107.666L134.033 104.492L143.066 102.051Z" fill="#02020B"/>
<path d="M151.855 54.6875L154.297 55.4199L158.936 56.8848L162.598 57.8613L173.584 61.2793L177.002 62.2559V62.9883L175.049 64.6973L172.607 67.1387H172.119V67.627H171.631V68.1152H171.143V68.6035L169.189 70.3125L166.26 73.2422H165.771L165.283 74.4629L164.062 73.2422L162.109 70.3125L160.4 67.627V67.1387H159.912L157.471 63.2324L154.297 58.5938L151.855 54.9316V54.6875Z" fill="#141120"/>
<path d="M187.5 73.7305L188.477 74.707L191.406 80.3223L194.336 87.1582L198.242 96.9238L200.195 102.051L199.219 101.562L197.51 99.8535L195.557 98.1445L191.65 94.4824L188.965 92.041L187.012 90.332L180.176 84.9609L180.664 83.9844L183.105 80.0781L187.256 73.9746L187.5 73.7305Z" fill="#04040D"/>
<path d="M137.939 125.244L138.184 125L138.428 126.953L139.648 127.441L137.939 130.859L135.01 136.23L134.521 137.451L108.643 150.391L108.154 150.146L110.107 148.193L112.061 146.484L116.211 142.334L118.164 140.625L122.07 136.719L125.488 134.277L129.395 131.592L133.301 128.662L137.695 125.488L137.939 125.244Z" fill="#04040D"/>
<path d="M148.438 53.9551L149.658 55.1758L151.367 57.8613L154.297 62.2559L156.5 65.5L156.25 66.1621L153.32 67.627L150.635 69.3359L147.705 70.8008L145.264 72.2656H144.531V72.7539L142.578 73.9746L141.357 74.4629H140.625V74.9512L137.451 76.6602L136.23 77.6367L135.986 77.1484L137.207 75.9277L140.137 70.3125L142.822 64.6973L147.705 54.9316L148.438 53.9551Z" fill="#03030C"/>
<path d="M167.725 96.6797H168.213L168.701 103.516L169.189 115.234V117.676L167.725 117.188L160.889 114.014L155.029 111.328V110.352L157.227 107.91L158.936 105.957L161.865 103.027L163.574 101.074L166.016 98.6328L167.725 96.6797Z" fill="#04040E"/>
<path d="M131.104 123.779H135.254L134.277 124.512L130.371 125.977L119.629 129.639L105.713 134.033L99.1211 135.986L87.4023 139.16L78.125 141.602L76.6602 141.846L78.125 139.893L79.5898 138.184L81.7871 137.695L87.8906 135.986L98.6328 132.812L113.77 128.418L124.512 125.244L129.395 124.023L131.104 123.779Z" fill="#6C7480"/>
<path d="M127.93 143.066L128.418 143.311L126.953 145.02L125.244 147.461L122.803 150.879L120.361 154.541L119.385 156.006L117.676 158.203L115.479 161.621H114.99L114.746 162.598L111.084 167.969L109.131 170.654L108.154 172.363L107.666 172.119L108.398 169.189L111.328 159.424L112.793 153.564L113.525 151.367L113.77 150.146L123.291 145.508L127.93 143.066Z" fill="#1B1927"/>
<path d="M181.885 110.107L182.617 110.352L185.303 114.746L187.988 118.896L191.65 124.512L192.139 125.732L188.232 133.545L186.035 138.428L185.547 139.648H185.059L183.838 128.174L182.129 113.77L181.885 110.107Z" fill="#03030C"/>
<path d="M160.156 41.748L161.377 42.2363L165.771 44.6777L171.143 47.6074L175.049 49.5605L176.27 50.0488V50.5371L171.875 50.7812L157.227 51.0254H151.123L152.588 49.3164L160.156 41.748Z" fill="#02020B"/>
<path d="M160.645 191.162L176.514 191.406L176.025 192.383L173.34 195.801H148.926L150.391 193.848L152.1 192.139L152.588 191.406H160.4L160.645 191.162Z" fill="#02020B"/>
<path d="M135.498 160.156L135.986 160.4L134.521 162.109L133.545 163.086L129.883 166.992L128.174 168.945L125.977 171.387L123.047 174.805L122.803 175.049L120.361 174.805L113.037 173.828L111.084 173.34L112.061 172.363L119.385 168.701L124.756 165.771L133.301 161.377L135.498 160.156Z" fill="#05050E"/>
<path d="M152.832 112.793L154.053 113.037L157.471 114.746L163.574 117.432L164.307 117.92V118.652L163.086 118.896L161.133 119.385L158.691 120.117L156.982 120.605L154.297 121.338L152.344 121.826L148.438 122.803L144.287 123.535L142.822 124.023L142.09 124.512L142.578 123.535L145.508 120.605L147.217 118.652L149.902 115.967L151.611 114.014L152.832 112.793Z" fill="#13101F"/>
<path d="M141.357 81.543H142.822L145.508 82.7637L154.053 86.4258L162.598 90.332L167.236 92.7734L167.48 93.9941L157.715 91.0645L145.264 87.1582L133.789 83.4961L133.545 83.0078L137.939 82.2754L141.357 81.543Z" fill="#05050E"/>
<path d="M175.293 62.0117L177.002 62.2559V62.9883L175.049 64.6973L172.607 67.1387L172.119 67.627L171.631 68.1152L171.143 68.6035L169.189 70.3125L166.26 73.2422L165.283 74.4629L164.062 73.2422L162.109 70.3125L160.4 67.627L159.912 67.1387L159.18 65.918V65.1855L164.551 64.209L172.363 62.5L175.293 62.0117Z" fill="#02020C"/>
<path d="M100.098 135.498L101.074 135.742L100.098 136.23L97.6562 137.207L96.4355 137.939L90.0879 141.113H89.1113V141.602L86.9141 142.578H85.9375V143.066L83.9844 144.043L82.7637 143.799L83.0078 144.531L81.2988 144.775V145.264L74.9512 148.193L72.998 149.17H72.2656V149.658H71.7773L71.5332 150.146L70.5566 149.902L69.0918 150.879L69.5801 149.902L72.7539 146.24L75.4395 143.066L76.416 141.846L85.4492 139.404L97.4121 136.23L100.098 135.498Z" fill="#12101E"/>
<path d="M164.062 96.6797L164.795 96.9238L161.621 100.098L159.912 102.051L157.471 104.492L155.762 106.445L153.564 108.887L152.832 109.619L150.146 106.445L147.949 103.76L146.24 101.807V101.318L156.25 98.6328L161.621 97.4121L164.062 96.6797Z" fill="#04040E"/>
<path d="M163.086 76.6602H163.818L166.016 87.1582L167.48 93.2617L167.236 93.9941L153.809 89.8438L140.625 85.6934L133.789 83.4961L133.545 83.0078L137.939 82.2754L152.344 79.1016L163.086 76.6602Z" fill="#6D7581"/>
<path d="M187.988 94.4824L188.965 94.9707L192 97.5L192.871 98.3887L195.801 101.318L197.754 103.027L198 103.5L185.5 107L183 108L183.5 105.5L187.5 95.7031L187.988 94.4824Z" fill="#6D7581"/>
<path d="M138.184 125L139 127H140L137.451 131.592L135.986 134.277L134.5 137.5L133.545 137.939L130.5 139.5L132.813 135.498L134.277 132.812L136.963 127.441L138.184 125Z" fill="#6D7581"/>
<path d="M177.49 87.1582H177.734L178.223 91.5527L178.5 95.5L176 100L174 107.5L173.34 108.643L173.096 110.5L172.119 117.188L171 120L170.654 101.807L170.41 98.1445V94.9707L172.119 93.0176L173.096 91.7969L177.246 87.6465L177.49 87.1582Z" fill="#03030C"/>
<path d="M176.758 50.7812H178.467L181.152 53.7109L183.35 56.3965L181.885 58.1055L178.955 60.791L176.27 60.0586L167.725 57.373L167.969 56.6406L169.678 55.4199H170.41V54.9316L172.852 53.4668L175.537 51.5137L176.758 50.7812Z" fill="#05050E"/>
<path d="M131.348 105.713H132.08L135.498 117.92L135.986 120.117H99.5L111.816 115.234L118.896 111.816L122.803 109.863L129.883 106.445L131.348 105.713Z" fill="#ADBAC2"/>
<path d="M73.7305 169.189L71.5332 172.607L68.3594 176.758L65.6738 179.932L63.4766 180.908L55.9082 183.35L39.3066 188.477L34.1797 189.941L33.6914 189.697L36.8652 187.744L41.9922 184.814L52.2461 179.688L58.1055 177.002L68.3594 171.875L73.7305 169.189Z" fill="#ACB9C1"/>
<path d="M132.08 85.2051L134.033 85.6934L142.822 88.623L150.391 91.0645L157.715 93.2617L161.621 94.4824V94.9707L157.959 95.9473L145.752 99.1211H144.287L141.357 95.9473L139.648 93.9941L136.719 90.5762L135.986 89.8438L135.254 89.1113L133.545 87.1582L132.08 85.2051Z" fill="#ADBAC2"/>
<path d="M129.639 86.4258L130.859 87.6465L134.521 91.5527L137.451 94.7266L141.846 99.6094V100.098L133.789 102.295L133.301 101.562L130.127 89.1113L129.639 87.4023V86.4258Z" fill="#ADBAC2"/>
<path d="M144.287 191.162L149.414 191.406L148.926 192.383L145.996 195.801H130.371L131.348 194.336L133.545 191.65L133.789 191.406L144.287 191.162Z" fill="#04040D"/>
<path d="M166.26 78.125L168.945 79.834L174.072 83.252L176.758 85.2051L173.096 88.8672L171.387 90.8203L169.922 92.5293H169.434L167.725 84.9609L166.26 78.6133V78.125Z" fill="#04040D"/>
<path d="M157.959 168.457L158.936 168.701L157.959 169.678L156.982 170.654L153.076 174.316L151.123 176.025L135.01 175.537L135.742 175.049L141.846 173.34L151.611 170.41L154.785 169.434L157.959 168.457Z" fill="#151221"/>
<path d="M179.932 87.4023L181.885 88.8672L185.303 91.5527L186.279 92.5293L186.035 93.75L184.082 98.6328L182.861 101.807L181.885 104.248L181.396 104.492L180.664 95.459L179.932 87.8906V87.4023Z" fill="#04040E"/>
<path d="M151.855 54.6875L154.297 55.4199L158.936 56.8848L162.598 57.8613L164.795 58.5938L165.039 59.3262L164.307 60.0586L160.889 62.2559L158.936 63.4766H158.447V63.9648L157.715 63.7207L151.855 54.9316V54.6875Z" fill="#03030C"/>
<path d="M174.561 41.0156L175.781 41.5039L179.688 43.457L182.373 44.9219L186.035 46.875L189.453 48.584V48.8281L182.617 50.0488L180.908 50.293L180.176 49.3164L178.223 46.6309L177.734 45.8984L177.002 44.6777L176.514 44.1895L175.537 42.7246L175.049 41.9922L174.561 41.0156Z" fill="#161423"/>
<path d="M152.832 112.793L154.053 113.037L157.471 114.746L161.377 116.455L158.447 116.943L155.762 117.676L153.32 118.164L151.367 118.652L149.658 118.896L147.949 119.141L146.729 119.385L148.193 117.676L149.902 115.967L151.611 114.014L152.832 112.793Z" fill="#04040D"/>
<path d="M163.33 41.0156H172.119L176.514 47.6074V48.0957L175.293 47.6074L169.678 44.6777L164.307 41.748L163.33 41.2598V41.0156Z" fill="#0B0C16"/>
<path d="M191.162 67.627H191.65L194.58 72.998L197.021 77.6367L196.777 78.125L190.918 74.2188L188.721 72.5098L188.965 71.2891L190.918 67.8711L191.162 67.627Z" fill="#080812"/>
<path d="M179.443 191.406H182.129L183.594 193.604L184.57 195.801H176.025L177.49 193.848L179.443 191.406Z" fill="#04040E"/>
<path d="M125.244 191.406H130.615L130.127 192.383L127.93 195.068L127.197 195.801H122.314L123.779 193.359L125.244 191.406Z" fill="#06060F"/>
<path d="M178.467 54.1992H180.176L180.908 55.1758V56.6406L179.932 57.6172L178.223 57.373L177.49 56.3965L177.734 54.9316L178.467 54.1992Z" fill="#E1ECEF"/>
<path d="M96.9238 170.654L98.3887 170.898L99.1211 171.631V173.096L98.3887 173.828H96.6797L95.9473 173.096V171.631L96.9238 170.654Z" fill="#E1ECEF"/>
<path d="M159.424 57.1289L161.865 57.6172L163.086 58.1055V59.082L161.377 59.8145L160.156 59.3262V58.8379L158.936 58.3496L159.424 57.1289Z" fill="#12101D"/>
<path d="M75.4395 178.467L76.6602 178.711L76.9043 179.932L76.416 180.42L75.1953 180.176L74.9512 178.955L75.4395 178.467Z" fill="#D3DEE2"/>
</svg>
